<?xml version="1.0" standalone="no"?>
<!DOCTYPE svg PUBLIC "-//W3C//DTD SVG 20010904//EN"
 "http://www.w3.org/TR/2001/REC-SVG-20010904/DTD/svg10.dtd">
<svg version="1.0" xmlns="http://www.w3.org/2000/svg"
 width="264.000000pt" height="198.000000pt" viewBox="0 0 264.000000 198.000000"
 preserveAspectRatio="xMidYMid meet">
<metadata>
Created by potrace 1.16, written by Peter Selinger 2001-2019
</metadata>
<g transform="translate(0.000000,198.000000) scale(0.100000,-0.100000)"
fill="#000000" stroke="none">
<path d="M623 1936 c-61 -20 -127 -61 -159 -98 -45 -54 -93 -166 -105 -250
-22 -141 26 -297 125 -400 l45 -47 -47 -6 c-275 -37 -454 -222 -440 -454 6
-94 37 -161 103 -219 80 -71 192 -90 273 -48 l29 15 6 -56 c20 -191 207 -343
420 -343 164 0 352 101 418 224 13 25 26 46 29 46 3 0 16 -21 29 -46 66 -123
254 -224 418 -224 213 0 400 152 420 343 l6 56 29 -15 c81 -42 193 -23 273 48
66 58 97 125 103 219 7 124 -35 225 -132 317 -79 75 -180 119 -308 137 l-47 6
45 47 c58 61 112 169 126 256 15 92 -1 198 -46 292 -44 94 -85 137 -164 176
-58 29 -77 33 -142 33 -116 -1 -195 -48 -239 -145 -11 -25 -21 -54 -21 -64 0
-16 -4 -14 -23 12 -62 83 -197 142 -327 142 -130 0 -265 -59 -327 -142 -19
-26 -23 -28 -23 -12 -1 27 -37 105 -63 132 -60 65 -195 97 -284 68z m836 -133
c63 -21 115 -58 144 -102 32 -49 57 -132 57 -190 0 -62 -24 -166 -49 -221 -12
-25 -19 -36 -16 -25 25 81 32 226 17 310 -7 37 -8 38 -16 15 -5 -18 -9 -21
-13 -10 -4 8 -15 21 -25 29 -13 9 -18 20 -14 36 4 17 0 25 -19 33 -17 8 -25
20 -25 37 0 33 -61 73 -148 97 l-67 18 65 -6 c36 -4 85 -13 109 -21z m-701
-95 c17 -17 15 -69 -3 -94 -8 -12 -37 -31 -65 -43 -58 -25 -57 -37 11 -72 62
-31 149 -19 201 28 17 15 18 13 18 -42 0 -72 23 -160 64 -250 25 -54 31 -76
23 -92 -9 -21 -9 -21 -56 7 -25 15 -78 46 -117 68 -100 58 -167 122 -203 194
-36 71 -36 76 -15 171 13 55 24 79 49 104 34 34 72 42 93 21z m1217 -21 c25
-25 36 -49 49 -104 21 -95 21 -100 -15 -171 -36 -72 -103 -136 -203 -194 -39
-22 -92 -53 -117 -68 -47 -28 -47 -28 -56 -7 -8 16 -2 38 23 92 41 90 64 178
64 250 0 55 1 57 18 42 52 -47 139 -59 201 -28 68 35 69 47 11 72 -58 25 -80
50 -80 94 0 63 53 74 105 22z m-1323 -637 c80 -24 180 -94 273 -190 81 -84 61
-79 -39 9 -38 34 -77 61 -88 61 -10 0 -21 7 -24 15 -4 8 -13 15 -22 15 -8 0
-23 6 -31 14 -19 17 -114 46 -150 46 -25 1 -25 1 -7 15 19 14 17 15 -21 15
-64 0 -144 -18 -200 -46 -94 -45 -182 -156 -203 -256 l-9 -43 3 50 c6 74 42
158 83 198 105 103 286 143 435 97z m1583 5 c165 -43 258 -147 271 -300 l3
-50 -9 43 c-21 100 -109 211 -203 256 -56 28 -136 46 -200 46 -38 0 -40 -1
-21 -15 18 -14 18 -14 -7 -15 -36 0 -131 -29 -150 -46 -8 -8 -23 -14 -31 -14
-9 0 -18 -7 -22 -15 -3 -8 -14 -15 -24 -15 -11 0 -50 -27 -88 -61 -100 -88
-120 -93 -39 -9 178 183 337 242 520 195z"/>
</g>
</svg>
