<?xml version="1.0" standalone="no"?>
<!DOCTYPE svg PUBLIC "-//W3C//DTD SVG 20010904//EN"
 "http://www.w3.org/TR/2001/REC-SVG-20010904/DTD/svg10.dtd">
<svg version="1.0" xmlns="http://www.w3.org/2000/svg"
 width="260.000000pt" height="260.000000pt" viewBox="0 0 260.000000 260.000000"
 preserveAspectRatio="xMidYMid meet">
<metadata>
Created by potrace 1.11, written by Peter Selinger 2001-2013
</metadata>
<g transform="translate(0.000000,260.000000) scale(0.100000,-0.100000)"
fill="#000000" stroke="none">
<path d="M1215 2582 c-78 -15 -226 -98 -224 -126 0 -6 31 -94 68 -196 42 -115
64 -186 57 -189 -134 -46 -224 -132 -306 -296 -20 -38 -41 -71 -48 -71 -7 -1
-16 -2 -22 -3 -5 -1 -9 -89 -8 -222 l0 -221 43 -46 43 -45 -15 -43 c-14 -42
-22 -48 -166 -135 -84 -50 -154 -95 -157 -99 -3 -4 -26 -10 -52 -13 -26 -3
-83 -11 -126 -18 l-80 -12 25 -66 c154 -415 430 -670 830 -767 16 -4 109 -9
208 -10 189 -4 238 2 375 47 251 83 477 276 609 520 38 71 124 270 119 274 -2
2 -41 8 -88 14 -47 7 -100 15 -118 17 -18 3 -75 31 -125 63 -51 32 -124 77
-164 100 -73 44 -80 51 -89 107 -4 28 1 38 35 71 l39 38 0 223 c0 219 0 222
-22 228 -14 3 -34 29 -58 77 -75 144 -157 229 -259 269 l-56 22 23 60 c68 183
104 284 109 307 6 23 0 31 -43 62 -27 19 -63 42 -78 50 -60 30 -200 44 -279
29z"/>
</g>
</svg>
