<?xml version="1.0" standalone="no"?>
<!DOCTYPE svg PUBLIC "-//W3C//DTD SVG 20010904//EN"
 "http://www.w3.org/TR/2001/REC-SVG-20010904/DTD/svg10.dtd">
<svg version="1.0" xmlns="http://www.w3.org/2000/svg"
 width="260.000000pt" height="260.000000pt" viewBox="0 0 260.000000 260.000000"
 preserveAspectRatio="xMidYMid meet">
<metadata>
Created by potrace 1.11, written by Peter Selinger 2001-2013
</metadata>
<g transform="translate(0.000000,260.000000) scale(0.100000,-0.100000)"
fill="#000000" stroke="none">
<path d="M550 2432 c0 -3 35 -51 77 -109 l78 -104 0 -87 0 -87 -111 -110
c-116 -115 -159 -173 -217 -290 -77 -155 -107 -298 -102 -485 5 -200 60 -374
171 -541 46 -70 192 -227 228 -246 18 -10 14 -17 -48 -98 -37 -48 -70 -93 -72
-100 -4 -9 149 -12 723 -12 l728 0 32 38 c39 49 101 123 176 210 31 37 57 70
57 73 0 3 -47 6 -105 6 l-106 0 49 63 c275 359 293 838 46 1213 -49 76 -203
230 -274 276 -143 92 -286 148 -415 164 -27 4 -57 8 -65 10 -8 1 -58 3 -112 3
l-96 1 2 93 c1 50 -2 99 -6 109 -7 14 -39 16 -323 15 -173 -1 -315 -3 -315 -5z"/>
</g>
</svg>
